<svg xmlns="http://www.w3.org/2000/svg" version="1.1" xmlns:xlink="http://www.w3.org/1999/xlink" xmlns:svgjs="http://svgjs.dev/svgjs" width="2000" height="1252" viewBox="0 0 2000 1252"><g transform="matrix(1,0,0,1,-1.2121212121212466,-2.01935483870966)"><svg viewBox="0 0 396 248" data-background-color="#2979ff" preserveAspectRatio="xMidYMid meet" height="1252" width="2000" xmlns="http://www.w3.org/2000/svg" xmlns:xlink="http://www.w3.org/1999/xlink"><g id="tight-bounds" transform="matrix(1,0,0,1,0.2400000000000091,0.4000000000000057)"><svg viewBox="0 0 395.52 247.2" height="247.2" width="395.52"><g><svg></svg></g><g><svg viewBox="0 0 395.52 247.2" height="247.2" width="395.52"><mask id="e04f08b8-f504-490f-8ccf-d62871d004b6"><rect width="395.52" height="247.2" fill="white"></rect><g transform="matrix(1,0,0,1,0,38.96197530864197)" id="clone"><svg viewBox="0 0 395.52 169.27604938271605" height="169.27604938271605" width="395.52"><g><svg viewBox="0 0 395.52 169.27604938271605" height="169.27604938271605" width="395.52"><g><svg viewBox="0 0 395.52 169.27604938271605" height="169.27604938271605" width="395.52"><g><svg viewBox="0 0 395.52 169.27604938271605" height="169.27604938271605" width="395.52"><g id="SvgjsG4797"><svg viewBox="0 0 395.52 169.27604938271605" height="169.27604938271605" width="395.52" id="SvgjsSvg4796"><g><svg viewBox="0 0 395.52 169.27604938271605" height="169.27604938271605" width="395.52"><g transform="matrix(1,0,0,1,0,0)"><svg width="395.52" viewBox="-1.35 -44.45 134.64 58.2" height="169.27604938271605" data-palette-color="#ffffff"><path d="M26.25-5.35L26.25-12.65 15.75-12.7 13.5-4.25Q12.75-1.4 12.05 0.45 11.35 2.3 10.2 4.2L10.2 4.2Q7.8 8 3.1 8L3.1 8 3.1 7.4Q6.85 7.4 8.95 4.88 11.05 2.35 12.3-2.05L12.3-2.05 12.8-3.1 12.7-3.15Q11 0.65 7.3 0.65L7.3 0.65Q4.85 0.65 3.25-1 1.65-2.65 1.65-5.15L1.65-5.15Q1.65-13.3 15.25-13.3L15.25-13.3 20.25-32.2 18.7-32.25Q18.5-32.25 18.3-32.25L18.3-32.25Q15.55-32.25 13.85-30.98 12.15-29.7 12.15-27.6L12.15-27.6Q12.15-26.6 12.45-25.95L12.45-25.95 12.05-25.65Q11.5-26.25 11.5-27.73 11.5-29.2 12.55-30.53 13.6-31.85 15.25-32.3L15.25-32.3Q15.7-32.4 16.4-32.5L16.4-32.5 16.4-32.6 15.25-32.55Q10.45-33.15 7.45-35.27 4.45-37.4 4.45-41.4L4.45-41.4 5.05-41.45Q5.05-39.15 6.2-37.48 7.35-35.8 9.35-34.85L9.35-34.85Q13.15-33.05 18.35-32.85L18.35-32.85 26.95-32.45 26.95-5.35Q26.95-2.35 25.85-0.88 24.75 0.6 22.1 0.6L22.1 0.6Q20.75 0.6 19.85 0.3L19.85 0.3 19.95-0.2Q21.05 0.05 21.95 0.05L21.95 0.05Q24.45 0.05 25.35-1.25 26.25-2.55 26.25-5.35L26.25-5.35ZM15.9-13.3L18.3-13.3 26.25-13.25 26.25-31.9 20.9-32.15 15.9-13.3ZM2.35-5.15L2.35-5.15Q2.35-2.95 3.75-1.45 5.15 0.05 7.3 0.05L7.3 0.05Q10.75 0.05 12.4-3.6L12.4-3.6Q13.3-5.65 13.95-8.4L13.95-8.4 15.1-12.7Q2.35-12.6 2.35-5.15ZM28.25-5.35L28.25-5.35 28.25-30.25Q28.25-33.25 29.35-34.73 30.45-36.2 33.1-36.2L33.1-36.2Q34.45-36.2 35.35-35.9L35.35-35.9 35.25-35.4Q34.15-35.65 33.25-35.65L33.25-35.65Q30.75-35.65 29.85-34.35 28.95-33.05 28.95-30.25L28.95-30.25 28.95-5.35Q28.95-2.55 29.85-1.25 30.75 0.05 33.25 0.05L33.25 0.05Q34.15 0.05 35.25-0.2L35.25-0.2 35.35 0.3Q34.45 0.6 33.1 0.6L33.1 0.6Q30.45 0.6 29.35-0.88 28.25-2.35 28.25-5.35ZM41.55-22.8L41.55-22.8 41.55-5.5Q41.55-3.85 41.62-3.03 41.7-2.2 42.07-1.33 42.45-0.45 43.22-0.13 44 0.2 45.32 0.2 46.65 0.2 47.3-0.2L47.3-0.2 47.6 0.15Q46.85 0.75 45.2 0.75L45.2 0.75Q42.5 0.75 41.7-0.65 40.9-2.05 40.9-5.35L40.9-5.35 40.9-22.6Q40.9-36.45 49.85-36.45L49.85-36.45 49.85-35.95Q41.55-35.95 41.55-22.8ZM55.35-23.5L55.35-23.5 63.4-23.5 63.4-22.95 55.35-22.95 55.75 2.5Q55.75 2.65 55.75 2.8L55.75 2.8Q55.75 8.85 51.7 10.75L51.7 10.75Q48.6 10.75 45.85 9.1L45.85 9.1 46.1 8.65Q48.95 10.2 51.55 10.2L51.55 10.2Q55.1 8.4 55.1 2.8L55.1 2.8Q55.1 2.65 55.1 2.5L55.1 2.5 54.7-22.95 49.75-22.95 49.75-23.5 54.7-23.5Q54.7-27.05 55.75-30.38 56.8-33.7 59-35.55L59-35.55Q62.55-35.55 65.6-33.8L65.6-33.8 65.3-33.35Q62.3-35 59.15-35L59.15-35Q55.35-31.55 55.35-23.5ZM72.19-14.5L72.19-3.35Q72.19 0.05 76.49 0.05L76.49 0.05Q77.39 0.05 78.49-0.2L78.49-0.2 78.59 0.25Q77.69 0.6 76.19 0.6 74.69 0.6 73.39-0.05 72.09-0.7 71.84-2L71.84-2Q71.59-0.7 70.32-0.05 69.04 0.6 67.54 0.6 66.04 0.6 65.14 0.25L65.14 0.25 65.24-0.2Q66.34 0.05 67.24 0.05L67.24 0.05Q71.54 0.05 71.54-3.35L71.54-3.35 71.54-16.9Q71.54-23.55 67.24-23.55L67.24-23.55Q65.94-23.55 65.29-23.15L65.29-23.15 64.99-23.5Q65.74-24.1 67.39-24.1L67.39-24.1Q72.19-24.1 72.19-16.9L72.19-16.9 72.19-15.7Q74.94-22.2 80.14-24.25L80.14-24.25Q81.94-22.2 81.94-18.1L81.94-18.1Q81.94-17.85 81.94-17.65L81.94-17.65 81.29-17.65Q81.29-17.9 81.29-18.15L81.29-18.15Q81.29-21.7 79.89-23.55L79.89-23.55Q77.19-22.3 75.52-20.13 73.84-17.95 72.19-14.5L72.19-14.5ZM93.49 0.75Q90.19-0.45 88.29-3.55 86.39-6.65 86.39-10.45 86.39-14.25 88.04-18.03 89.69-21.8 92.54-24.25L92.54-24.25Q101.19-24.25 101.19-18.35L101.19-18.35Q101.19-16.45 100.49-14.6L100.49-14.6Q101.89-14.65 103.89-14.65L103.89-14.65 103.89-14.15Q103.39-14.15 102.94-14.15L102.94-14.15Q95.84-14.15 87.24-12.8L87.24-12.8Q87.09-11.5 87.09-10.35L87.09-10.35Q87.09-6.85 88.79-3.98 90.49-1.1 93.59 0.05L93.59 0.05Q95.44-0.7 97.34-2.13 99.24-3.55 100.44-5.15L100.44-5.15 100.89-4.85Q99.64-3.2 97.57-1.63 95.49-0.05 93.49 0.75L93.49 0.75ZM100.54-18.35L100.54-18.35Q100.54-23.7 92.74-23.7L92.74-23.7Q88.49-20.05 87.34-13.4L87.34-13.4Q92.79-14.3 99.94-14.6L99.94-14.6Q100.54-16.55 100.54-18.35ZM123.74-25.85L123.74-6.6Q123.74 0.05 128.04 0.05L128.04 0.05Q129.34 0.05 129.99-0.35L129.99-0.35 130.29 0Q129.54 0.6 127.89 0.6L127.89 0.6Q123.09 0.6 123.09-6.6L123.09-6.6 123.09-7.7Q121.39-4.85 118.61-2.55 115.84-0.25 113.39 0.75L113.39 0.75Q110.74-0.65 109.44-3.55 108.14-6.45 108.14-10.3 108.14-14.15 109.91-18 111.69-21.85 114.99-24.25L114.99-24.25Q119.39-24.25 123.09-22.15L123.09-22.15 123.09-25.85Q123.09-32.65 121.14-34.6L121.14-34.6Q120.19-35.55 118.64-36L118.64-36 118.74-36.5Q122.14-35.7 123.04-32.5L123.04-32.5Q123.74-30 123.74-25.85L123.74-25.85ZM115.14-23.7Q112.09-21.3 110.46-17.65 108.84-14 108.84-10.38 108.84-6.75 109.99-3.98 111.14-1.2 113.49 0.05L113.49 0.05Q115.79-0.85 118.71-3.38 121.64-5.9 123.09-8.7L123.09-8.7 123.09-21.55Q119.39-23.7 115.14-23.7L115.14-23.7Z" opacity="1" transform="matrix(1,0,0,1,0,0)" fill="black" class="wordmark-text-0" id="SvgjsPath4795" stroke-width="5" stroke="black" stroke-linejoin="round"></path></svg></g></svg></g></svg></g></svg></g></svg></g></svg></g></svg></g></mask><g mask="url(#e04f08b8-f504-490f-8ccf-d62871d004b6)"><g><path d="M236.502 180.464v-36.493l-52.489-0.25-11.248 42.241c-2.499 9.498-4.916 17.33-7.248 23.496-2.333 6.165-5.416 12.414-9.249 18.746v0c-7.998 12.664-19.829 18.996-35.492 18.996v0-2.999c12.497 0 22.245-4.199 29.244-12.598 6.999-8.432 12.581-19.979 16.746-34.643v0l2.5-5.249-0.5-0.25c-5.666 12.664-14.664 18.996-26.995 18.996v0c-8.165 0-14.914-2.749-20.246-8.248-5.332-5.499-7.998-12.414-7.998-20.746v0c0-27.161 22.662-40.742 67.986-40.741v0l24.995-94.481-7.748-0.25c-0.667 0-1.333 0-2 0v0c-9.165 0-16.58 2.116-22.245 6.348-5.666 4.266-8.498 9.898-8.499 16.897v0c0 3.333 0.5 6.082 1.5 8.248v0l-1.999 1.5c-1.833-2-2.749-5.466-2.75-10.398 0-4.899 1.75-9.565 5.249-13.997 3.499-4.399 7.998-7.349 13.497-8.848v0c1.5-0.333 3.416-0.667 5.749-1v0-0.5l-5.749 0.25c-15.997-2-28.994-6.532-38.992-13.597-9.998-7.099-14.997-17.313-14.997-30.644v0l3-0.25c0 7.665 1.916 14.28 5.748 19.846 3.833 5.599 9.082 9.981 15.747 13.147v0c12.664 5.999 27.661 9.331 44.991 9.998v0l42.991 2v135.473c0 9.998-1.833 17.446-5.498 22.345-3.666 4.932-9.915 7.399-18.747 7.399v0c-4.499 0-8.248-0.5-11.247-1.5v0l0.5-2.5c3.666 0.833 6.999 1.25 9.998 1.25v0c8.332 0 13.997-2.166 16.996-6.499 2.999-4.332 4.499-11.164 4.499-20.495zM184.763 140.722h11.997l39.742 0.249v-93.231l-26.744-1.249zM117.026 181.463v0c0 7.332 2.333 13.497 6.999 18.497 4.666 4.999 10.581 7.498 17.746 7.498v0c11.498 0 19.996-6.082 25.495-18.246v0c2.999-6.832 5.582-14.83 7.749-23.995v0l5.748-21.496c-42.491 0.333-63.737 12.914-63.737 37.742zM246.5 180.464v0-124.475c0-9.998 1.833-17.463 5.499-22.396 3.666-4.899 9.915-7.349 18.746-7.348v0c4.499 0 8.248 0.5 11.248 1.499v0l-0.5 2.5c-3.666-0.833-6.999-1.25-9.998-1.25v0c-8.332 0-13.997 2.166-16.996 6.499-2.999 4.332-4.499 11.164-4.5 20.496v0 124.475c0 9.331 1.5 16.163 4.5 20.495 2.999 4.332 8.665 6.499 16.996 6.499v0c2.999 0 6.332-0.417 9.998-1.25v0l0.5 2.5c-2.999 1-6.749 1.5-11.248 1.499v0c-8.832 0-15.08-2.466-18.746-7.398-3.666-4.899-5.499-12.348-5.499-22.345z" fill="#ffffff" fill-rule="nonzero" stroke="none" stroke-width="1" stroke-linecap="butt" stroke-linejoin="miter" stroke-miterlimit="10" stroke-dasharray="" stroke-dashoffset="0" font-family="none" font-weight="none" font-size="none" text-anchor="none" style="mix-blend-mode: normal" data-fill-palette-color="tertiary"></path></g></g><g transform="matrix(1,0,0,1,0,38.96197530864197)"><svg viewBox="0 0 395.52 169.27604938271605" height="169.27604938271605" width="395.52"><g><svg viewBox="0 0 395.52 169.27604938271605" height="169.27604938271605" width="395.52"><g><svg viewBox="0 0 395.52 169.27604938271605" height="169.27604938271605" width="395.52"><g><svg viewBox="0 0 395.52 169.27604938271605" height="169.27604938271605" width="395.52"><g id="textblocktransform"><svg viewBox="0 0 395.52 169.27604938271605" height="169.27604938271605" width="395.52" id="textblock"><g><svg viewBox="0 0 395.52 169.27604938271605" height="169.27604938271605" width="395.52"><g transform="matrix(1,0,0,1,0,0)"><svg width="395.52" viewBox="-1.35 -44.45 134.64 58.2" height="169.27604938271605" data-palette-color="#ffffff"><path d="M26.25-5.35L26.25-12.65 15.75-12.7 13.5-4.25Q12.75-1.4 12.05 0.45 11.35 2.3 10.2 4.2L10.2 4.2Q7.8 8 3.1 8L3.1 8 3.1 7.4Q6.85 7.4 8.95 4.88 11.05 2.35 12.3-2.05L12.3-2.05 12.8-3.1 12.7-3.15Q11 0.65 7.3 0.65L7.3 0.65Q4.85 0.65 3.25-1 1.65-2.65 1.65-5.15L1.65-5.15Q1.65-13.3 15.25-13.3L15.25-13.3 20.25-32.2 18.7-32.25Q18.5-32.25 18.3-32.25L18.3-32.25Q15.55-32.25 13.85-30.98 12.15-29.7 12.15-27.6L12.15-27.6Q12.15-26.6 12.45-25.95L12.45-25.95 12.05-25.65Q11.5-26.25 11.5-27.73 11.5-29.2 12.55-30.53 13.6-31.85 15.25-32.3L15.25-32.3Q15.7-32.4 16.4-32.5L16.4-32.5 16.4-32.6 15.25-32.55Q10.45-33.15 7.45-35.27 4.45-37.4 4.45-41.4L4.45-41.4 5.05-41.45Q5.05-39.15 6.2-37.48 7.35-35.8 9.35-34.85L9.35-34.85Q13.15-33.05 18.35-32.85L18.35-32.85 26.95-32.45 26.95-5.35Q26.95-2.35 25.85-0.88 24.75 0.6 22.1 0.6L22.1 0.6Q20.75 0.6 19.85 0.3L19.85 0.3 19.95-0.2Q21.05 0.05 21.95 0.05L21.95 0.05Q24.45 0.05 25.35-1.25 26.25-2.55 26.25-5.35L26.25-5.35ZM15.9-13.3L18.3-13.3 26.25-13.25 26.25-31.9 20.9-32.15 15.9-13.3ZM2.35-5.15L2.35-5.15Q2.35-2.95 3.75-1.45 5.15 0.05 7.3 0.05L7.3 0.05Q10.75 0.05 12.4-3.6L12.4-3.6Q13.3-5.65 13.95-8.4L13.95-8.4 15.1-12.7Q2.35-12.6 2.35-5.15ZM28.25-5.35L28.25-5.35 28.25-30.25Q28.25-33.25 29.35-34.73 30.45-36.2 33.1-36.2L33.1-36.2Q34.45-36.2 35.35-35.9L35.35-35.9 35.25-35.4Q34.15-35.65 33.25-35.65L33.25-35.65Q30.75-35.65 29.85-34.35 28.95-33.05 28.95-30.25L28.95-30.25 28.95-5.35Q28.95-2.55 29.85-1.25 30.75 0.05 33.25 0.05L33.25 0.05Q34.15 0.05 35.25-0.2L35.25-0.2 35.35 0.3Q34.45 0.6 33.1 0.6L33.1 0.6Q30.45 0.6 29.35-0.88 28.25-2.35 28.25-5.35ZM41.55-22.8L41.55-22.8 41.55-5.5Q41.55-3.85 41.62-3.03 41.7-2.2 42.07-1.33 42.45-0.45 43.22-0.13 44 0.2 45.32 0.2 46.65 0.2 47.3-0.2L47.3-0.2 47.6 0.15Q46.85 0.75 45.2 0.75L45.2 0.75Q42.5 0.75 41.7-0.65 40.9-2.05 40.9-5.35L40.9-5.35 40.9-22.6Q40.9-36.45 49.85-36.45L49.85-36.45 49.85-35.95Q41.55-35.95 41.55-22.8ZM55.35-23.5L55.35-23.5 63.4-23.5 63.4-22.95 55.35-22.95 55.75 2.5Q55.75 2.65 55.75 2.8L55.75 2.8Q55.75 8.85 51.7 10.75L51.7 10.75Q48.6 10.75 45.85 9.1L45.85 9.1 46.1 8.65Q48.95 10.2 51.55 10.2L51.55 10.2Q55.1 8.4 55.1 2.8L55.1 2.8Q55.1 2.65 55.1 2.5L55.1 2.5 54.7-22.95 49.75-22.95 49.75-23.5 54.7-23.5Q54.7-27.05 55.75-30.38 56.8-33.7 59-35.55L59-35.55Q62.55-35.55 65.6-33.8L65.6-33.8 65.3-33.35Q62.3-35 59.15-35L59.15-35Q55.35-31.55 55.35-23.5ZM72.19-14.5L72.19-3.35Q72.19 0.05 76.49 0.05L76.49 0.05Q77.39 0.05 78.49-0.2L78.49-0.2 78.59 0.25Q77.69 0.6 76.19 0.6 74.69 0.6 73.39-0.05 72.09-0.7 71.84-2L71.84-2Q71.59-0.7 70.32-0.05 69.04 0.6 67.54 0.6 66.04 0.6 65.14 0.25L65.14 0.25 65.24-0.2Q66.34 0.05 67.24 0.05L67.24 0.05Q71.54 0.05 71.54-3.35L71.54-3.35 71.54-16.9Q71.54-23.55 67.24-23.55L67.24-23.55Q65.94-23.55 65.29-23.15L65.29-23.15 64.99-23.5Q65.74-24.1 67.39-24.1L67.39-24.1Q72.19-24.1 72.19-16.9L72.19-16.9 72.19-15.7Q74.94-22.2 80.14-24.25L80.14-24.25Q81.94-22.2 81.94-18.1L81.94-18.1Q81.94-17.85 81.94-17.65L81.94-17.65 81.29-17.65Q81.29-17.9 81.29-18.15L81.29-18.15Q81.29-21.7 79.89-23.55L79.89-23.55Q77.19-22.3 75.52-20.13 73.84-17.95 72.19-14.5L72.19-14.5ZM93.49 0.75Q90.19-0.45 88.29-3.55 86.39-6.65 86.39-10.45 86.39-14.25 88.04-18.03 89.69-21.8 92.54-24.25L92.54-24.25Q101.19-24.25 101.19-18.35L101.19-18.35Q101.19-16.45 100.49-14.6L100.49-14.6Q101.89-14.65 103.89-14.65L103.89-14.65 103.89-14.15Q103.39-14.15 102.94-14.15L102.94-14.15Q95.84-14.15 87.24-12.8L87.24-12.8Q87.09-11.5 87.09-10.35L87.09-10.35Q87.09-6.85 88.79-3.98 90.49-1.1 93.59 0.05L93.59 0.05Q95.44-0.7 97.34-2.13 99.24-3.55 100.44-5.15L100.44-5.15 100.89-4.85Q99.64-3.2 97.57-1.63 95.49-0.05 93.49 0.75L93.49 0.75ZM100.54-18.35L100.54-18.35Q100.54-23.7 92.74-23.7L92.74-23.7Q88.49-20.05 87.34-13.4L87.34-13.4Q92.79-14.3 99.94-14.6L99.94-14.6Q100.54-16.55 100.54-18.35ZM123.74-25.85L123.74-6.6Q123.74 0.05 128.04 0.05L128.04 0.05Q129.34 0.05 129.99-0.35L129.99-0.35 130.29 0Q129.54 0.6 127.89 0.6L127.89 0.6Q123.09 0.6 123.09-6.6L123.09-6.6 123.09-7.7Q121.39-4.85 118.61-2.55 115.84-0.25 113.39 0.75L113.39 0.75Q110.74-0.65 109.44-3.55 108.14-6.45 108.14-10.3 108.14-14.15 109.91-18 111.69-21.85 114.99-24.25L114.99-24.25Q119.39-24.25 123.09-22.15L123.09-22.15 123.09-25.85Q123.09-32.65 121.14-34.6L121.14-34.6Q120.19-35.55 118.64-36L118.64-36 118.74-36.5Q122.14-35.7 123.04-32.5L123.04-32.5Q123.74-30 123.74-25.85L123.74-25.85ZM115.14-23.7Q112.09-21.3 110.46-17.65 108.84-14 108.84-10.38 108.84-6.75 109.99-3.98 111.14-1.2 113.49 0.05L113.49 0.05Q115.79-0.85 118.71-3.38 121.64-5.9 123.09-8.7L123.09-8.7 123.09-21.55Q119.39-23.7 115.14-23.7L115.14-23.7Z" opacity="1" transform="matrix(1,0,0,1,0,0)" fill="#ffffff" class="wordmark-text-0" data-fill-palette-color="primary" id="text-0"></path></svg></g></svg></g></svg></g></svg></g></svg></g></svg></g></svg></g></svg></g><defs></defs></svg><rect width="395.52" height="247.2" fill="none" stroke="none" visibility="hidden"></rect></g></svg></g></svg>